HIERARCHY
ROOT root
{
	OFFSET 0.000000 0.000000 0.000000
	CHANNELS 6 Xposition Yposition Zposition Zrotation Yrotation Xrotation
	JOINT lhip
	{
		OFFSET 0.058581 -0.082280 -0.017664
		CHANNELS 3 Zrotation Yrotation Xrotation
		JOINT lknee
		{
			OFFSET 0.043451 -0.386469 0.008037
			CHANNELS 3 Zrotation Yrotation Xrotation
			JOINT lankle
			{
				OFFSET -0.014790 -0.426874 -0.037428
				CHANNELS 3 Zrotation Yrotation Xrotation
				JOINT ltoe
				{
					OFFSET 0.041054 -0.060286 0.122042
					CHANNELS 3 Zrotation Yrotation Xrotation
					End Site
					{
						OFFSET 0.000000 0.000000 0.000000
					}
				}
			}
		}
	}
	JOINT rhip
	{
		OFFSET -0.060310 -0.090513 -0.013543
		CHANNELS 3 Zrotation Yrotation Xrotation
		JOINT rknee
		{
			OFFSET -0.043257 -0.383688 -0.004843
			CHANNELS 3 Zrotation Yrotation Xrotation
			JOINT rankle
			{
				OFFSET 0.019056 -0.420046 -0.034562
				CHANNELS 3 Zrotation Yrotation Xrotation
				JOINT rtoe
				{
					OFFSET -0.034840 -0.062106 0.130323
					CHANNELS 3 Zrotation Yrotation Xrotation
					End Site
					{
						OFFSET 0.000000 0.000000 0.000000
					}
				}
			}
		}
	}
	JOINT lowerback
	{
		OFFSET 0.004439 0.124404 -0.038385
		CHANNELS 3 Zrotation Yrotation Xrotation
		JOINT upperback
		{
			OFFSET 0.004488 0.137956 0.026820
			CHANNELS 3 Zrotation Yrotation Xrotation
			JOINT chest
			{
				OFFSET -0.002265 0.056032 0.002855
				CHANNELS 3 Zrotation Yrotation Xrotation
				JOINT lowerneck
				{
					OFFSET -0.013390 0.211636 -0.033468
					CHANNELS 3 Zrotation Yrotation Xrotation
					JOINT upperneck
					{
						OFFSET 0.010113 0.088937 0.050410
						CHANNELS 3 Zrotation Yrotation Xrotation
						End Site
						{
							OFFSET 0.000000 0.000000 0.000000
						}
					}
				}
				JOINT lclavicle
				{
					OFFSET 0.071702 0.114000 -0.018898
					CHANNELS 3 Zrotation Yrotation Xrotation
					JOINT lshoulder
					{
						OFFSET 0.122921 0.045205 -0.019046
						CHANNELS 3 Zrotation Yrotation Xrotation
						JOINT lelbow
						{
							OFFSET 0.255332 -0.015649 -0.022946
							CHANNELS 3 Zrotation Yrotation Xrotation
							JOINT lwrist
							{
								OFFSET 0.265709 0.012698 -0.007375
								CHANNELS 3 Zrotation Yrotation Xrotation
								End Site
								{
									OFFSET 0.000000 0.000000 0.000000
								}
							}
						}
					}
				}
				JOINT rclavicle
				{
					OFFSET -0.082954 0.112472 -0.023707
					CHANNELS 3 Zrotation Yrotation Xrotation
					JOINT rshoulder
					{
						OFFSET -0.113228 0.046853 -0.008472
						CHANNELS 3 Zrotation Yrotation Xrotation
						JOINT relbow
						{
							OFFSET -0.260127 -0.014369 -0.031269
							CHANNELS 3 Zrotation Yrotation Xrotation
							JOINT rwrist
							{
								OFFSET -0.269108 0.006794 -0.006027
								CHANNELS 3 Zrotation Yrotation Xrotation
								End Site
								{
									OFFSET 0.000000 0.000000 0.000000
								}
							}
						}
					}
				}
			}
		}
	}
}
MOTION
Frames: 7
Frame Time: 0.033333
0.002628 0.594512 0.963380 83.263676 1.423859 85.035873 3.372867 6.793891 -2.596447 -1.955633 14.825445 24.315950 7.073983 16.077589 -23.990499 0.000000 -0.000000 0.000000 -2.848145 0.928340 -11.743058 -1.816566 2.897443 28.803776 3.751703 1.552445 -16.139360 0.000000 -0.000000 0.000000 0.234611 -1.427841 6.573792 2.576113 -2.751829 2.425609 -0.440918 -0.556652 1.459739 5.538195 -1.568318 -12.323515 4.092113 -6.795470 0.007596 -27.073064 -12.515982 -0.860355 -69.015112 -21.777553 23.844495 34.680575 -76.276165 -15.511477 33.393788 -0.815349 -15.327567 29.024899 13.877824 2.588761 65.178812 11.943199 29.088517 -8.294256 69.453373 20.034816 -22.133105 12.211235 14.202462 
0.000703 0.596464 0.964144 82.603124 1.642870 84.516088 3.652102 7.127085 -2.154166 -2.183180 14.784668 24.340765 7.161408 16.334254 -24.035260 0.000000 -0.000000 0.000000 -2.533889 1.398200 -11.278734 -1.717251 3.578488 28.515771 3.899544 1.099866 -15.897547 0.000000 -0.000000 0.000000 0.168712 -1.666358 7.554008 2.690895 -2.208840 1.920933 -0.342629 -0.252234 1.243536 5.812349 -1.626037 -13.482715 3.111693 -7.049272 2.899276 -27.495548 -12.560967 -0.283407 -68.674063 -21.888811 23.355763 35.179155 -76.314405 -15.670331 32.982997 -0.720385 -15.258560 29.019429 14.211958 3.101653 65.245674 12.053424 28.961496 -9.607505 68.994906 18.932426 -21.670024 11.517854 13.976548 
0.000420 0.599724 0.964002 83.331146 1.768271 84.839951 3.175489 6.459718 -2.514797 -2.043663 14.040381 24.164333 7.484907 16.660821 -24.084640 0.000000 -0.000000 0.000000 -2.773365 1.119437 -11.509984 -1.661905 3.421058 28.556774 3.959078 0.764699 -15.955753 0.000000 -0.000000 0.000000 0.327001 -1.542241 6.999406 2.642211 -2.627078 1.961334 -0.499398 -0.411657 1.715787 5.578039 -1.926188 -12.508425 4.196543 -7.366411 1.116751 -26.948060 -12.485552 -0.453456 -69.102995 -22.247537 23.745503 33.274438 -76.454112 -12.998904 35.270504 -0.341656 -16.255906 29.386999 13.895118 3.068867 64.220546 11.585290 29.241526 -5.462105 69.919830 26.596027 -25.912949 14.433975 17.629750 
-0.000618 0.603593 0.962898 83.927605 1.568045 84.728547 2.429468 6.012754 -2.378409 -1.673303 13.742647 23.554577 7.528071 16.485932 -24.125508 0.000000 -0.000000 0.000000 -3.044167 1.185968 -12.044803 -2.078179 3.346811 29.662055 4.673297 0.581575 -16.292467 0.000000 -0.000000 0.000000 -0.014650 -1.268427 7.224298 2.559492 -2.796586 2.023501 -0.557119 -0.636962 1.672019 5.865882 -1.548273 -12.942078 4.197639 -7.290846 1.236428 -26.736603 -12.425634 -0.755285 -69.144250 -22.223090 24.220755 34.629203 -76.456339 -15.035517 33.432794 -0.891129 -15.574369 28.871497 13.796032 2.141484 65.425178 11.584665 29.389274 -9.954472 69.877122 18.254481 -21.399225 11.752534 12.655187 
-0.000368 0.606218 0.963376 85.129144 1.703129 84.303755 2.064289 5.700830 -1.863245 -1.395222 12.577634 23.173064 7.622472 16.271145 -24.062337 0.000000 -0.000000 0.000000 -3.053524 0.596360 -11.536542 -2.231446 3.274053 29.964624 4.552087 0.095158 -16.456055 0.000000 -0.000000 0.000000 0.125023 -1.115023 7.416784 2.692238 -3.376303 2.280409 -0.654851 -0.995897 1.611472 5.868872 -2.071486 -12.709252 4.103411 -7.554597 1.290847 -27.033236 -12.651130 -0.614589 -68.741228 -22.402163 24.092063 34.032474 -76.564166 -14.521820 33.193691 -0.648276 -15.758305 29.096344 13.962601 2.092274 65.380085 11.396341 29.194221 -11.625591 69.832096 16.496860 -21.132822 11.764321 13.441941 
-0.000121 0.610086 0.963062 87.202634 1.805851 84.387845 1.484424 4.899831 -2.216878 -0.973524 11.484255 23.231055 7.841727 15.904771 -23.869956 0.000000 -0.000000 0.000000 -3.283270 0.117141 -12.021528 -2.440763 2.497756 31.503645 4.659928 -0.812884 -16.605497 0.000000 -0.000000 0.000000 0.546574 -1.162886 6.839920 2.732800 -4.201270 2.430225 -1.220961 -1.497754 1.894021 5.453456 -2.291861 -11.477946 4.537074 -7.621556 0.215340 -26.830323 -12.946610 -0.482664 -68.467986 -22.637329 24.365363 34.451749 -76.575593 -14.684370 33.701438 0.142340 -16.447077 29.158308 13.812916 1.714713 65.449160 11.226797 29.317098 -11.924933 69.865019 16.660020 -21.608767 11.861505 13.927344 
0.000652 0.614344 0.963863 89.432563 1.822800 84.150859 0.884892 4.461961 -1.789805 -0.923123 9.704592 22.526344 8.365879 15.742703 -23.643718 0.000000 -0.000000 0.000000 -3.713747 -0.591197 -12.120330 -2.408976 2.021047 33.098985 5.277651 -1.624492 -16.059722 0.000000 -0.000000 0.000000 0.818606 -1.213886 6.660539 2.711576 -4.724613 2.440786 -1.555007 -1.989697 2.119305 5.306254 -3.073742 -11.203722 4.491721 -8.081362 0.533356 -27.060146 -13.149507 -0.224122 -68.022514 -22.984830 24.493189 32.309984 -76.630241 -12.690973 34.222048 0.343993 -16.695565 29.259380 13.608299 1.507422 64.817868 11.139398 29.345623 -10.999611 70.253027 17.328793 -22.191327 11.532444 13.752504 
